<svg xmlns="http://www.w3.org/2000/svg" width="188.962" height="210.722" viewBox="0 0 188.962 210.722">
  <g id="arrow_right" transform="matrix(0.545, 0.839, -0.839, 0.545, 90.127, 0)">
    <g id="Calque_1" data-name="Calque 1" transform="translate(0 0)">
      <path id="Tracé_96" data-name="Tracé 96" d="M181.468,44.528c-1.08-3.033-3.324-5.177-5.535-7.375Q158.99,20.267,142.1,3.335c-3.553-3.548-7.762-4.3-11.543-2.078a12.212,12.212,0,0,0-2.348,1.861Q109.96,21.326,91.748,39.571c-4.9,4.924-3.881,12.162,2.048,14.933a8.551,8.551,0,0,0,9.183-.947,17.7,17.7,0,0,0,1.969-1.778q10.346-10.334,20.676-20.671a3.74,3.74,0,0,1,1.7-1.055c-.69,3.465-1.168,6.993-2.1,10.388-4.724,17.1-14.605,30.428-29.784,39.6a63.793,63.793,0,0,1-38.613,9.224,65.5,65.5,0,0,1-40.9-18.149c-3.873-3.619-8.161-4.159-11.9-1.666a8.929,8.929,0,0,0-1.2,13.982,81.746,81.746,0,0,0,17.036,12.91,82.171,82.171,0,0,0,42.1,11.123,82.229,82.229,0,0,0,48.51-15.789,83.394,83.394,0,0,0,30.02-39.826,83.78,83.78,0,0,0,4.429-18.9c.033-.274.087-.544.179-1.072.619.582,1.089.993,1.529,1.433,6.395,6.386,12.756,12.806,19.184,19.155,4.3,4.242,10.508,3.893,13.882-.765a22.8,22.8,0,0,0,1.774-3.615Z" transform="translate(0 0)" fill="#fff"/>
    </g>
  </g>
</svg>
