<svg xmlns="http://www.w3.org/2000/svg" width="343" height="148.834" viewBox="0 0 343 148.834">
  <g id="connect" transform="translate(-159 -1911.166)">
    <text id="Let_s_connect" data-name="Let&apos;s
         connect" transform="translate(159 1985)" fill="#fff" font-size="51" font-family="Montserrat-SemiBold, Montserrat" font-weight="600"><tspan x="0" y="0">Let&apos;s</tspan><tspan x="0" y="62" xml:space="preserve">         connect</tspan></text>
    <g id="Calque_2" data-name="Calque 2" transform="translate(293.515 1911.166) rotate(3)">
      <g id="Calque_1" data-name="Calque 1" transform="translate(0 0)">
        <path id="Tracé_96" data-name="Tracé 96" d="M109.636,47.559a15.633,15.633,0,0,1-3.344,5.573Q96.055,65.893,85.853,78.688c-2.146,2.681-4.689,3.253-6.974,1.57a7.928,7.928,0,0,1-1.418-1.407Q66.433,65.092,55.43,51.305c-2.962-3.721-2.345-9.19,1.238-11.285a4.346,4.346,0,0,1,5.548.716,12,12,0,0,1,1.19,1.344Q69.656,49.889,75.9,57.7a2.253,2.253,0,0,0,1.027.8c-.417-2.619-.705-5.284-1.27-7.85C72.8,37.725,66.83,27.656,57.659,20.726a32.6,32.6,0,0,0-23.328-6.971c-9.539.895-17.738,5.558-24.712,13.715-2.34,2.735-4.93,3.143-7.19,1.259-2.9-2.418-3.278-7.4-.725-10.566A52.294,52.294,0,0,1,12,8.408,42.231,42.231,0,0,1,37.434,0C48.186.107,58,4.053,66.742,11.935c8.52,7.683,14.522,17.778,18.137,30.1a76.878,76.878,0,0,1,2.676,14.283c.02.207.053.411.108.81.374-.44.658-.75.924-1.083,3.863-4.826,7.707-9.677,11.59-14.475,2.6-3.206,6.349-2.942,8.387.578a19.311,19.311,0,0,1,1.072,2.732Z" transform="translate(0 0)" fill="#fff"/>
      </g>
    </g>
  </g>
</svg>
