<svg xmlns="http://www.w3.org/2000/svg" xmlns:xlink="http://www.w3.org/1999/xlink" width="326.357" height="127.351" viewBox="0 0 326.357 127.351">
  <defs>
    <filter id="green-underline-ipad" x="0" y="0" width="326.357" height="127.351" filterUnits="userSpaceOnUse">
      <feOffset dy="3" input="SourceAlpha"/>
      <feGaussianBlur stdDeviation="3" result="blur"/>
      <feFlood flood-opacity="0" result="color"/>
      <feComposite operator="out" in="SourceGraphic" in2="blur"/>
      <feComposite operator="in" in="color"/>
      <feComposite operator="in" in2="SourceGraphic"/>
    </filter>
  </defs>
  <g data-type="innerShadowGroup">
    <path id="green-underline-ipad-2" data-name="green-underline-ipad" d="M21.5,32.49q234.748-19.3,247.679-4.726c12.931,14.57-142.623,9.06-200.992,15.74C35.9,47.2,7.9,71.51,42.32,77.586c1.152.2,2.849.442,4.682.637a126.331,126.331,0,0,0,13.045.624c7.272.011,16-1.194,26.476-3.183,38.525-7.316,99.264-25.267,187.136-28.985" transform="translate(16.25 13.505)" fill="rgba(0,0,0,0)"/>
    <g transform="matrix(1, 0, 0, 1, 0, 0)" filter="url(#green-underline-ipad)">
      <path id="green-underline-ipad-3" data-name="green-underline-ipad" d="M21.5,32.49q234.748-19.3,247.679-4.726c12.931,14.57-142.623,9.06-200.992,15.74C35.9,47.2,7.9,71.51,42.32,77.586c1.152.2,2.849.442,4.682.637a126.331,126.331,0,0,0,13.045.624c7.272.011,16-1.194,26.476-3.183,38.525-7.316,99.264-25.267,187.136-28.985" transform="translate(16.25 13.5)" fill="#fff"/>
    </g>
    <path id="green-underline-ipad-4" data-name="green-underline-ipad" d="M21.5,32.49q234.748-19.3,247.679-4.726c12.931,14.57-142.623,9.06-200.992,15.74C35.9,47.2,7.9,71.51,42.32,77.586c1.152.2,2.849.442,4.682.637a126.331,126.331,0,0,0,13.045.624c7.272.011,16-1.194,26.476-3.183,38.525-7.316,99.264-25.267,187.136-28.985" transform="translate(16.25 13.505)" fill="none" stroke="#7bfbb2" stroke-linecap="round" stroke-width="70"/>
  </g>
</svg>
