<svg xmlns="http://www.w3.org/2000/svg" width="36" height="25.524" viewBox="0 0 36 25.524">
  <path id="icon-upwork" d="M27.841,19.737A7.358,7.358,0,0,1,23.23,17.9l.342-1.614.012-.063c.31-1.715,1.274-4.59,4.259-4.59a4.054,4.054,0,1,1,0,8.108Zm0-12.21c-3.809,0-6.765,2.474-7.965,6.549a33.5,33.5,0,0,1-4.031-8.838h-4.1V15.906a3.819,3.819,0,1,1-7.638,0V5.238H0V15.906a7.923,7.923,0,1,0,15.846,0V14.121a25.175,25.175,0,0,0,2.961,4.831L16.3,30.762h4.2L22.313,22.2a10.114,10.114,0,0,0,5.529,1.663,8.167,8.167,0,0,0,0-16.333Z" transform="translate(0 -5.238)"/>
</svg>
