<svg xmlns="http://www.w3.org/2000/svg" width="96.419" height="78.225" viewBox="0 0 96.419 78.225">
  <path id="icon" d="M275.451,298a21.088,21.088,0,0,0-16.6,8.077L256.17,309.5a4.36,4.36,0,0,0,.149,5.56l2.615,2.99,5.785-7.379a13.638,13.638,0,0,1,10.732-5.224h9.736l-20.807,26.161a.978.978,0,0,1-1.48.06l-16.444-17.565a16.74,16.74,0,0,0-10.158-3.441H209.154L232.246,339.7,214.452,362.07h6.015a7.265,7.265,0,0,0,5.686-2.743l11.924-14.992,3.688-4.638-3.688-4.637L224.6,318.115h11.82a9.043,9.043,0,0,1,7.077,3.414l.529.666,14.362,15.149a1.3,1.3,0,0,1,.074,1.708L244.025,357.2l-.644.809a28.34,28.34,0,0,1-17.307,10.326,28.834,28.834,0,0,1-5.007.438h-10.22a3.583,3.583,0,0,0-2.8,1.353l-3.691,4.642a.9.9,0,0,0,.7,1.456h16.924a34.075,34.075,0,0,0,26.667-12.863l1.21-1.522,17.61-22.142,28.455-35.777L300.575,298Z" transform="translate(-204.155 -298)"/>
</svg>
