<svg xmlns="http://www.w3.org/2000/svg" width="52.928" height="42.94" viewBox="0 0 52.928 42.94">
  <path id="logo_mobile" d="M243.292,298a11.576,11.576,0,0,0-9.11,4.434l-1.474,1.88a2.393,2.393,0,0,0,.082,3.052l1.435,1.642,3.176-4.051a7.486,7.486,0,0,1,5.891-2.867h5.344L237.214,316.45a.537.537,0,0,1-.812.033l-9.026-9.642a9.189,9.189,0,0,0-5.576-1.889H206.9l12.676,15.937-9.767,12.281h3.3a3.988,3.988,0,0,0,3.121-1.506l6.545-8.229,2.025-2.546-2.025-2.546-7.4-9.3h6.489a4.964,4.964,0,0,1,3.885,1.874l.291.365,7.884,8.316a.715.715,0,0,1,.041.938l-7.925,9.963-.353.444a15.557,15.557,0,0,1-9.5,5.668,15.829,15.829,0,0,1-2.748.24h-5.61a1.967,1.967,0,0,0-1.539.742l-2.026,2.548a.492.492,0,0,0,.385.8h9.29a18.7,18.7,0,0,0,14.639-7.061l.664-.835,9.667-12.154,15.62-19.639,2.555-3.25Z" transform="translate(-204.155 -298)"/>
</svg>
