<?xml version="1.0" encoding="utf-8"?>
<!-- Generator: Adobe Illustrator 23.0.3, SVG Export Plug-In . SVG Version: 6.00 Build 0)  -->
<svg version="1.1" id="Calque_1" xmlns="http://www.w3.org/2000/svg" xmlns:xlink="http://www.w3.org/1999/xlink" x="0px" y="0px"
	 viewBox="0 0 5427.9 1034.7" style="enable-background:new 0 0 5427.9 1034.7;" xml:space="preserve">
<style type="text/css">
	.st0{stroke:#7BFBB2;stroke-width:360;stroke-miterlimit:10;}
	.st1{fill:#FFFFFF;stroke:#7BFBB2;stroke-width:360;stroke-miterlimit:10;}
	.st2{fill:none;stroke:#7BFBB2;stroke-width:360;stroke-linecap:round;}
</style>
<g>
	<path id="skills_underline-2_2_" class="st0" d="M205.8,335.1C3319,208.2,4961.4,192.7,5132.9,288.5
		c257.2,143.6-2837.2,89.3-3998.3,155.1C492.3,480-64.6,719.6,620,779.5c23,2,56.7,4.4,93.1,6.3c74.1,3.9,160.6,6,259.5,6.2
		c144.7,0.1,318.4-11.8,526.7-31.4c766.3-72.1,1974.6-249,3722.7-285.7"/>
	<g transform="matrix(1, 0, 0, 1, 0, 0)">
		<path id="skills_underline-3_1_" class="st1" d="M205.9,335.1c3113.2-126.8,4755.6-142.4,4927-46.6
			c257.2,143.6-2837.2,89.3-3998.3,155.1C492.3,480.1-64.6,719.7,620,779.6c23,2,56.7,4.4,93.1,6.3c74.1,3.9,160.6,6,259.5,6.2
			c144.7,0.1,318.4-11.8,526.7-31.4c766.3-72.1,1974.6-249,3722.7-285.7"/>
	</g>
	<path id="skills_underline-4_1_" class="st2" d="M205.8,335.1C3319,208.2,4961.4,192.7,5132.9,288.5
		c257.2,143.6-2837.2,89.3-3998.3,155.1C492.3,480-64.6,719.6,620,779.5c23,2,56.7,4.4,93.1,6.3c74.1,3.9,160.6,6,259.5,6.2
		c144.7,0.1,318.4-11.8,526.7-31.4c766.3-72.1,1974.6-249,3722.7-285.7"/>
</g>
</svg>
